# xmcd CD database file
#
# Track frame offsets:
#	150
#	26202
#	48822
#	78072
#	99487
#	125720
#	142345
#	160877
#	193310
#	214092
#	224725
#	240165
#	260655
#	272202
#	301215
#
# Disc length: 4304 seconds
#
# Revision: 0
# Processed by: cddbd v1.5.1PL0 Copyright (c) Steve Scherf et al.
# Submitted via: CDex 1.51
#
DISCID=e210ce0f
DTITLE=Adilson Ramos - Adilson Ramos - Eu e voce
DYEAR=1993
DGENRE=Bolero
TTITLE0=Olga/A chuva me lembrou voce
TTITLE1=Sonhar contigo/Sonhei com voce/Duas flores
TTITLE2=Leda/Solidao?Matine
TTITLE3=O relogio/Tao somente uma vez/Perfidia
TTITLE4=Tudo e nada?Em nome do amor
TTITLE5=Sorria, sorria
TTITLE6=Quem eh/Negue
TTITLE7=Soh liguei pq te amo/Fim de festa
TTITLE8=Brigas/Que queres tu de mim/Sentimental demais
TTITLE9=Depois do fim da festa
TTITLE10=Pingos de amor
TTITLE11=Essa tal liberdade
TTITLE12=Tortura de amor
TTITLE13=Esqueca
TTITLE14=Vem quente q eu estou fervendo/Era um garoto q como eu amava..
EXTD=YEAR: 1993
EXTT0=
EXTT1=
EXTT2=
EXTT3=
EXTT4=
EXTT5=
EXTT6=
EXTT7=
EXTT8=
EXTT9=
EXTT10=
EXTT11=
EXTT12=
EXTT13=
EXTT14=
PLAYORDER=
